<svg id="Layer_1" data-name="Layer 1" xmlns="http://www.w3.org/2000/svg" width="767.0941" height="135.6334" viewBox="0 0 767.0941 135.6334"><defs><style>.cls-1{fill:#020202;}.cls-2{fill:#c61821;}.cls-3{fill:#414143;}.cls-4{fill:#bc2026;}.cls-5{fill:#e11b23;}.cls-6{fill:#040302;}</style></defs><title>ikoOSKAR Banner-Vector</title><path class="cls-1" d="M737.67,76.6647c8.2165,4.3291,12.4669,11.1288,15.7256,18.6247,4.5167,10.39,9.2549,20.69,13.1569,31.34,1.2827,3.5012.34,5.2173-3.3865,5.8083a73.9225,73.9225,0,0,1-16.1127.3482c-3.5963-.2171-5.6452-1.9314-6.9312-5.3235q-4.7976-12.6557-10.106-25.1156c-2.4786-5.8-4.6268-11.8821-10.0067-15.9075-5.01-3.7483-10.827-3.349-16.55-3.1746-1.8418.0561-1.118,1.9086-1.1234,2.9676-.0674,13.3475-.0641,26.6954-.0834,40.0432-.0074,5.0574-.4159,5.4475-5.464,6.2769a46.9239,46.9239,0,0,1-14.9766-.2015c-2.6362-.4129-3.9954-1.8153-3.9908-4.7243.0568-35.7574.0144-71.5149.0687-107.2722.0082-5.4238,2.3989-7.9207,7.8539-7.9353,13.8325-.0371,27.6973-.37,41.4886.4424,11.0837.6529,21.4946,4.2177,28.3053,13.9289,11.5469,16.4645,4.5372,40.0372-14.1636,48.2979C740.4052,75.5169,739.4245,75.9193,737.67,76.6647ZM712.4017,31.0081c-3.2543,0-5.6995.05-8.1412-.02-1.3589-.0388-1.9759.3439-1.9688,1.841q.0707,15.0285.0085,30.0575c-.0034,1.2724.2114,2.1072,1.7616,2.0762,6.3321-.1268,12.7131.6471,18.9637-.9555,7.9148-2.0294,12.7131-8.4511,12.5556-16.7087-.1567-8.2115-4.2957-13.6146-11.9635-15.4213A40.9043,40.9043,0,0,0,712.4017,31.0081Z"/><path class="cls-1" d="M606.0189,105.1825c-6.613.001-13.2267.0555-19.8385-.0325-1.9678-.0262-2.9161.362-3.5449,2.5691-1.8685,6.558-4.3373,12.9435-6.2629,19.4872-1.0431,3.5445-2.9731,5.2876-6.6739,5.5381a66.5466,66.5466,0,0,1-12.8261.0054c-4.6631-.5866-5.7214-2.1955-4.2711-6.6745,2.4708-7.6307,5.0866-15.2155,7.7244-22.7908,9.9615-28.6082,19.9953-57.1913,29.8814-85.8254,1.038-3.0063,2.5763-5.0378,5.7593-5.2615a135.1312,135.1312,0,0,1,22.3614.0825c3.1174.298,4.8162,2.0653,5.867,5.1179,8.19,23.7917,16.5476,47.5256,24.8265,71.2868,4.0838,11.7213,8.11,23.4625,12.163,35.1946.3166.9164.7047,1.8146.94,2.7512,1.0134,4.0256.191,5.5421-3.9222,6.0328a70.5777,70.5777,0,0,1-17.5733-.1822c-2.28-.2989-3.3287-1.6413-4.0046-3.6627-2.32-6.9385-4.8507-13.81-7.0108-20.7966-.7277-2.3536-1.8175-2.9484-4.1248-2.8939C619.0023,105.2813,612.5094,105.1815,606.0189,105.1825Zm-16.89-19.2048h33.66l-16.87-50.76Z"/><path class="cls-1" d="M483.7972,65.6842c2.9584-4.2257,5.9358-8.4383,8.8715-12.68,8.2595-11.9326,16.6185-23.799,24.6828-35.8622a10.9234,10.9234,0,0,1,10.1174-5.2417c4.3894.1024,8.8045-.4792,13.1617.66,4.0248,1.0521,4.9356,2.5705,3.102,6.2581-3.6727,7.386-9.3111,13.411-14.1773,19.9626-6.5521,8.8214-13.2744,17.5177-20.018,26.1944-1.3829,1.7793-1.549,3.0115-.1964,5.0378q16.8523,25.2466,33.4162,50.6855c1.9135,2.9229,4.8837,6.183,3.0564,9.6166-1.7466,3.2821-6.1092,2.5118-9.3988,2.6372-14.1.5377-14.126.4579-21.7522-11.4445Q499.69,98.1392,484.7771,74.7314c-.3088-.4833-.3831-1.2054-1.8024-1.1894v9.2218c0,14.8186-.1047,29.6384.0769,44.4548.043,3.5106-1.4248,4.7716-4.5525,5.2534a48.0141,48.0141,0,0,1-15.3435-.0759c-2.836-.4746-4.4868-1.7931-4.4794-5.1147q.1219-54.9263.0031-109.853c-.0062-3.0773,1.2722-4.3549,4.13-4.8816a48.543,48.543,0,0,1,16.4108-.06c2.8021.4353,3.8285,1.8145,3.8083,4.7023-.112,16.0389-.0537,32.0789-.0537,48.1186Z"/><path class="cls-1" d="M403.8525,10.3759a52.8761,52.8761,0,0,1,23.9913,5.1149c3.6325,1.7017,5.3369,4.4138,5.1618,8.429-.1386,3.1776.1072,6.383-.1972,9.5394-.37,3.8423-1.9667,4.6724-5.4031,2.9232-5.32-2.7079-10.58-5.5575-16.56-6.5269a29.66,29.66,0,0,0-12.7013.2112c-4.87,1.3219-8.231,4.0579-9.2845,9.1868-1.13,5.5027.8161,9.7558,5.1583,13.1472,5.6546,4.4164,12.3978,6.67,18.7765,9.6549,7.7692,3.6354,15.3994,7.4876,20.7539,14.5589,11.1838,14.77,7.6244,38.2357-7.518,48.9749-12.6426,8.9663-26.841,10.3067-41.6463,7.933a51.303,51.303,0,0,1-17.5318-6.0338c-3.0282-1.733-4.8538-4.117-4.9865-7.5775a69.9255,69.9255,0,0,1,.0608-10.2646c.5221-4.7537,2.547-5.6084,6.6916-3.1595a61.7582,61.7582,0,0,0,13.8732,6.4624c6.2842,1.85,12.6618,2.6681,19.1557,1.2586,7.4454-1.616,11.9121-5.7142,12.927-11.7379,1.0895-6.4659-1.7405-11.86-8.9088-15.6807-6.8679-3.661-14.02-6.7841-20.9781-10.2818C375.79,72.0348,368.34,65.8792,365.4708,55.9963c-5.9184-20.3869,3.24-40.2874,27.71-44.8206A51.7982,51.7982,0,0,1,403.8525,10.3759Z"/><path class="cls-2" d="M64.8633,74.84c-.6193,11.73-.5269,22.8072-.53,33.8827-.0017,6.3264-.0214,6.3291-6.4237,7.162a45.5884,45.5884,0,0,1-11.3369-.386c-2.308-.2753-3.2671-1.6991-3.2316-4.0516.0831-5.5112.0262-11.0246.0262-16.5371,0-29.7674.05-59.5351-.0721-89.302C43.282,2.3858,44.4217.7771,47.431.39A57.7591,57.7591,0,0,1,60.2356.3218c2.914.2753,4.2111,1.9474,4.1868,5.2156-.1511,20.328-.0761,40.6577-.0761,62.0554,4.1114-4.11,6.6081-8.1827,9.4947-11.91,4.0962-5.29,8.0473-10.6933,11.9856-16.1027A8.3688,8.3688,0,0,1,91.79,35.776c4.9886-.5464,9.9963-.8947,14.9335.3441,2.4.6021,3.3752,1.8287,2.2865,4.5787-1.27,3.2079-3.6846,5.4372-5.7821,7.9121q-8.0561,9.5054-16.5,18.6777c-1.5928,1.7218-.6982,2.7423.1459,4.0558q11.7453,18.2748,23.5244,36.5276a14.0923,14.0923,0,0,1,1.6193,3.6159c.7168,2.317-.389,3.67-2.4669,3.9714a51.5588,51.5588,0,0,1-16.4443-.0072,5.7116,5.7116,0,0,1-4.0249-2.767c-7.6213-12.1383-15.3649-24.2-23.0742-36.2829C65.7764,76.04,65.5007,75.7071,64.8633,74.84Z"/><path class="cls-2" d="M1.4651,75.4554c0-11.2617.1365-22.5259-.0788-33.7835-.0693-3.6263,1.12-5.645,4.6864-5.9682,4.4894-.4069,8.9782-.7541,13.46.3623,2.2783.5675,3.2682,1.7708,3.2659,4.0868q-.0361,35.6211.0229,71.2421a3.7035,3.7035,0,0,1-3.3859,4.0366,40.1121,40.1121,0,0,1-14.2319.0952c-2.6681-.471-3.8271-1.9275-3.7944-4.8181C1.5428,98.9589,1.4651,87.2067,1.4651,75.4554Z"/><path class="cls-2" d="M11.8969,24.55c-.9772-.0558-1.9536-.1286-2.9314-.17-5.48-.23-8.1332-2.06-8.7335-7.3727C-.6971,8.7849.8363,2.6552,10.9016,2.8709c2.0787.0446,4.17.0006,6.2321.218,4.2075.4435,6.9284,3.5438,7.0669,8.72C24.4713,21.9333,21.4763,24.6845,11.8969,24.55Z"/><g id="Layer_2" data-name="Layer 2"><path class="cls-3" d="M149.5049,69.6156a26.173,26.173,0,0,0-1.2369,8.279,29.6987,29.6987,0,0,0,.8286,5.716,2.3346,2.3346,0,0,0-.0536,1.3337c.4337,1.95.5825,3.9432,1.1833,5.8793a40.5552,40.5552,0,0,0,2.8055,6.9584,58.5,58.5,0,0,0,4.3407,7.096,66.8925,66.8925,0,0,0,5.7821,6.9283,64.72,64.72,0,0,0,6.2494,5.494,66.74,66.74,0,0,0,8.948,5.9838,43.6079,43.6079,0,0,0,5.7286,2.6775,12.6925,12.6925,0,0,1,2.5253.8822,18.15,18.15,0,0,1-5.0342.5733c-2.5212.0991-5.0492.0832-7.5731.0409a55.0812,55.0812,0,0,1-16.3525-2.9867,67.3681,67.3681,0,0,1-18.5213-9.0148,59.714,59.714,0,0,1-14.47-14.1166,45.66,45.66,0,0,1-7.29-16.7164,34.7072,34.7072,0,0,1-.5405-11.0738,42.3263,42.3263,0,0,1,6.02-17.4372,59.9008,59.9008,0,0,1,11.0479-12.9991A69.2689,69.2689,0,0,1,167.31,26.7427a70.0853,70.0853,0,0,1,12.262-1.1468,52.8016,52.8016,0,0,1,6.8792.6972,25.08,25.08,0,0,1,4.34.8447c-.6591.1593-1.3117.3557-1.9784.47a19.9831,19.9831,0,0,0-4.4677,1.3419c-1.3563.58-2.6735,1.2516-3.98,1.9452a69.2662,69.2662,0,0,0-6.1887,3.6847,75.6346,75.6346,0,0,0-7.2251,5.5615,67.3254,67.3254,0,0,0-5.739,5.7137,54.1827,54.1827,0,0,0-4.6539,6.0133A49.9368,49.9368,0,0,0,152.63,58.75a35.9232,35.9232,0,0,0-1.7581,4.2314A18.701,18.701,0,0,0,149.5049,69.6156Z"/><path class="cls-3" d="M315.3193,87.7181a30.9152,30.9152,0,0,1-1.5369,8.2211,66.4371,66.4371,0,0,1-5.9988,13.1866,45.808,45.808,0,0,1-6.4953,8.4033,48.2822,48.2822,0,0,1-6.185,5.5872,46.1779,46.1779,0,0,1-5.1606,3.4169,51.7581,51.7581,0,0,1-7.7,3.354c-.7174.2638-1.413.5831-2.1564.78a26.4461,26.4461,0,0,1-8.034-2.2431,66.4856,66.4856,0,0,1-14.22-10.5355c-3.2248-2.9622-6.5834-5.7786-9.8781-8.6647-4.9934-4.3741-10.0887-8.6287-15.2056-12.8557-5.73-4.7332-11.5078-9.408-17.402-13.9377-3.0724-2.3612-6.1533-4.7153-9.051-7.2948a.3923.3923,0,0,1-.2106-.4183c1.0374.173,2.0694.3273,3.0944.5188,7.9723,1.4893,15.5016,4.4559,23.166,6.9691,6.5955,2.1627,12.9918,4.8719,19.5384,7.1725,6.1193,2.15,12.195,4.4267,18.3873,6.3646a97.7155,97.7155,0,0,0,14.3834,3.5937,49.3212,49.3212,0,0,0,13.2415.6425c6.5809-.7741,11.5454-4.2023,15.4209-9.4064C314.0109,89.6405,314.6532,88.67,315.3193,87.7181Z"/><path class="cls-3" d="M149.5049,69.6156a18.701,18.701,0,0,1,1.3675-6.6341A35.9232,35.9232,0,0,1,152.63,58.75a49.9368,49.9368,0,0,1,3.9277-6.8815,54.1827,54.1827,0,0,1,4.6539-6.0133,67.3254,67.3254,0,0,1,5.739-5.7137,75.6346,75.6346,0,0,1,7.2251-5.5615,69.2662,69.2662,0,0,1,6.1887-3.6847c1.3066-.6936,2.6238-1.3654,3.98-1.9452a19.9831,19.9831,0,0,1,4.4677-1.3419c.6667-.1148,1.3194-.3112,1.9784-.47a35.1967,35.1967,0,0,1,5.7581,1.7492A52.0468,52.0468,0,0,1,208.65,35.5113c8.0861,5.6158,16.1074,11.3183,23.9689,17.2446q11.4122,8.603,22.5552,17.5519a59.6954,59.6954,0,0,1,5.5219,4.81c.1763.1815.4253.3141.519.6718a29.5879,29.5879,0,0,1-4.4832-.7679c-5.732-1.3409-11.243-3.4129-16.8564-5.1471-7.7626-2.3982-15.3864-5.2237-23.173-7.5462-6.8675-2.0484-13.7722-3.97-20.7849-5.4592a88.8854,88.8854,0,0,0-14.397-1.8907c-2.4709-.1137-4.9382-.1969-7.4054-.1244-6.6122.1941-12.7123,1.9257-17.8613,6.2767a28.1424,28.1424,0,0,0-6.4064,7.9589C149.7459,69.272,149.62,69.4406,149.5049,69.6156Z"/><path class="cls-3" d="M281.5273,14.0695a38.129,38.129,0,0,0,5.216,2.65,50.0944,50.0944,0,0,1,16.3541,11.8521,44.361,44.361,0,0,1,6.7868,10.21,84.2306,84.2306,0,0,1,4.1443,9.3292,50.3346,50.3346,0,0,1,1.4557,5.9071c.628,2.91,1.1113,5.85,1.8847,8.7289a1.8589,1.8589,0,0,1,.0035.4722c-.6667-1.3786-1.3275-2.76-2.0012-4.1353a22.546,22.546,0,0,0-10.767-10.753,18.6033,18.6033,0,0,0-7.74-1.8761C289.26,46.3076,283.08,49.356,278.002,54.84c-1.3679,1.4772-2.4227,3.218-3.753,4.741-2.2572,2.5842-5.1676,3.1614-8.4108,3.0846a10.2319,10.2319,0,0,1-6.2239-2.6687c-2.391-1.8964-4.8336-3.7287-7.1959-5.66-3.1132-2.5449-4.1485-5.8916-3.8679-9.8485.2429-3.425,2.1124-5.9781,4.0266-8.5551a68.4963,68.4963,0,0,1,13.1194-13.0373A67.1255,67.1255,0,0,1,281.3722,14.06C281.4152,14.0425,281.4752,14.0655,281.5273,14.0695Z"/><path class="cls-3" d="M186.6058,126.8438a12.6925,12.6925,0,0,0-2.5253-.8822,43.6079,43.6079,0,0,1-5.7286-2.6775,66.74,66.74,0,0,1-8.948-5.9838,64.72,64.72,0,0,1-6.2494-5.494,66.8925,66.8925,0,0,1-5.7821-6.9283,58.5,58.5,0,0,1-4.3407-7.096,40.5552,40.5552,0,0,1-2.8055-6.9584c-.6008-1.9361-.75-3.929-1.1833-5.8793a2.3346,2.3346,0,0,1,.0536-1.3337c.4962.8438.9984,1.6841,1.4876,2.5319,3.5369,6.13,8.9082,9.7865,15.62,11.6983A23.96,23.96,0,0,0,186.95,94.4164a25.1242,25.1242,0,0,0,4.489-4.2676,10.9421,10.9421,0,0,1,6.4654-3.7723,10.2977,10.2977,0,0,1,7.2242,1.2557,63.9213,63.9213,0,0,1,11.0035,8.7449,9.2846,9.2846,0,0,1,2.4148,5.91c.3651,3.6693-1.2961,6.5484-3.6042,9.19a48.515,48.515,0,0,1-12.573,10.1557,44.6368,44.6368,0,0,1-10.0732,3.8478c-1.703.4879-3.4261.9058-5.1429,1.3447A2.5057,2.5057,0,0,1,186.6058,126.8438Z"/><path class="cls-3" d="M281.5273,14.0695A45.2485,45.2485,0,0,1,292.0287,11.42a74.5863,74.5863,0,0,1,10.945-.7582,39.5074,39.5074,0,0,1,9.5849,1.6761,43.6955,43.6955,0,0,1,17.7231,9.924,55.67,55.67,0,0,1,13.764,19.4468,61.9791,61.9791,0,0,1,4.0921,12.1549c.6234,2.9214,1.0759,5.8768,1.53,8.832a64.7064,64.7064,0,0,1,.6546,11.7449,84.74,84.74,0,0,1-1.3468,12.96A70.7147,70.7147,0,0,1,338.83,113.32a49.5958,49.5958,0,0,1-16.2385,16c-4.6184,2.7526-9.5441,5.0108-14.9609,5.7169a73.4577,73.4577,0,0,1-14.0634.4473,37.7478,37.7478,0,0,1-8.6674-1.4528c-1.2071-.3659-3.1694-1.1352-3.5657-1.2809a28.9348,28.9348,0,0,1-3.68-1.4368,19.2254,19.2254,0,0,0,2.4322-.6469c.7433-.1967,1.439-.516,2.1564-.78a51.7581,51.7581,0,0,0,7.7-3.354,46.1779,46.1779,0,0,0,5.1606-3.4169,48.2822,48.2822,0,0,0,6.185-5.5872,45.808,45.808,0,0,0,6.4953-8.4033,66.4371,66.4371,0,0,0,5.9988-13.1866,30.9152,30.9152,0,0,0,1.5369-8.2211c.7033-1.7106,1.5034-3.3835,2.0366-5.1607a33.2744,33.2744,0,0,0,1.3525-11.455,40.2625,40.2625,0,0,0-1.3361-7.8828,1.8589,1.8589,0,0,0-.0035-.4722c-.7734-2.8785-1.2568-5.8193-1.8847-8.7289a50.3346,50.3346,0,0,0-1.4557-5.9071,84.2306,84.2306,0,0,0-4.1443-9.3292,44.361,44.361,0,0,0-6.7868-10.21A50.0944,50.0944,0,0,0,286.7433,16.72,38.1289,38.1289,0,0,1,281.5273,14.0695Z"/><path class="cls-3" d="M277.6543,131.3142l-6.2518-3.2336,8.684,2.5866A6.5544,6.5544,0,0,1,277.6543,131.3142Z"/><path class="cls-4" d="M149.5049,69.6156a26.173,26.173,0,0,0-1.2369,8.279,29.6987,29.6987,0,0,0,.8286,5.716,2.3346,2.3346,0,0,0-.0536,1.3337c.4337,1.95.5825,3.9432,1.1833,5.8793a40.5552,40.5552,0,0,0,2.8055,6.9584,58.5,58.5,0,0,0,4.3407,7.096,66.8925,66.8925,0,0,0,5.7821,6.9283,64.72,64.72,0,0,0,6.2494,5.494,66.74,66.74,0,0,0,8.948,5.9838,43.6079,43.6079,0,0,0,5.7286,2.6775,12.6925,12.6925,0,0,1,2.5253.8822,18.15,18.15,0,0,1-5.0342.5733c-2.5212.0991-5.0492.0832-7.5731.0409a55.0812,55.0812,0,0,1-16.3525-2.9867,67.3681,67.3681,0,0,1-18.5213-9.0148,59.714,59.714,0,0,1-14.47-14.1166,45.66,45.66,0,0,1-7.29-16.7164,34.7072,34.7072,0,0,1-.5405-11.0738,42.3263,42.3263,0,0,1,6.02-17.4372,59.9008,59.9008,0,0,1,11.0479-12.9991A69.2689,69.2689,0,0,1,167.31,26.7427a70.0853,70.0853,0,0,1,12.262-1.1468,52.8016,52.8016,0,0,1,6.8792.6972,25.08,25.08,0,0,1,4.34.8447c-.6591.1593-1.3117.3557-1.9784.47a19.9831,19.9831,0,0,0-4.4677,1.3419c-1.3563.58-2.6735,1.2516-3.98,1.9452a69.2662,69.2662,0,0,0-6.1887,3.6847,75.6346,75.6346,0,0,0-7.2251,5.5615,67.3254,67.3254,0,0,0-5.739,5.7137,54.1827,54.1827,0,0,0-4.6539,6.0133A49.9368,49.9368,0,0,0,152.63,58.75a35.9232,35.9232,0,0,0-1.7581,4.2314A18.701,18.701,0,0,0,149.5049,69.6156Z"/><path class="cls-3" d="M315.3193,87.7181a30.9152,30.9152,0,0,1-1.5369,8.2211,66.4371,66.4371,0,0,1-5.9988,13.1866,45.808,45.808,0,0,1-6.4953,8.4033,48.2822,48.2822,0,0,1-6.185,5.5872,46.1779,46.1779,0,0,1-5.1606,3.4169,51.7581,51.7581,0,0,1-7.7,3.354c-.7174.2638-1.413.5831-2.1564.78a26.4461,26.4461,0,0,1-8.034-2.2431,66.4856,66.4856,0,0,1-14.22-10.5355c-3.2248-2.9622-6.5834-5.7786-9.8781-8.6647-4.9934-4.3741-10.0887-8.6287-15.2056-12.8557-5.73-4.7332-11.5078-9.408-17.402-13.9377-3.0724-2.3612-6.1533-4.7153-9.051-7.2948a.3923.3923,0,0,1-.2106-.4183c1.0374.173,2.0694.3273,3.0944.5188,7.9723,1.4893,15.5016,4.4559,23.166,6.9691,6.5955,2.1627,12.9918,4.8719,19.5384,7.1725,6.1193,2.15,12.195,4.4267,18.3873,6.3646a97.7155,97.7155,0,0,0,14.3834,3.5937,49.3212,49.3212,0,0,0,13.2415.6425c6.5809-.7741,11.5454-4.2023,15.4209-9.4064C314.0109,89.6405,314.6532,88.67,315.3193,87.7181Z"/><path class="cls-5" d="M149.5049,69.6156a18.701,18.701,0,0,1,1.3675-6.6341A35.9232,35.9232,0,0,1,152.63,58.75a49.9368,49.9368,0,0,1,3.9277-6.8815,54.1827,54.1827,0,0,1,4.6539-6.0133,67.3254,67.3254,0,0,1,5.739-5.7137,75.6346,75.6346,0,0,1,7.2251-5.5615,69.2662,69.2662,0,0,1,6.1887-3.6847c1.3066-.6936,2.6238-1.3654,3.98-1.9452a19.9831,19.9831,0,0,1,4.4677-1.3419c.6667-.1148,1.3194-.3112,1.9784-.47a35.1967,35.1967,0,0,1,5.7581,1.7492A52.0468,52.0468,0,0,1,208.65,35.5113c8.0861,5.6158,16.1074,11.3183,23.9689,17.2446q11.4122,8.603,22.5552,17.5519a59.6954,59.6954,0,0,1,5.5219,4.81c.1763.1815.4253.3141.519.6718a29.5879,29.5879,0,0,1-4.4832-.7679c-5.732-1.3409-11.243-3.4129-16.8564-5.1471-7.7626-2.3982-15.3864-5.2237-23.173-7.5462-6.8675-2.0484-13.7722-3.97-20.7849-5.4592a88.8854,88.8854,0,0,0-14.397-1.8907c-2.4709-.1137-4.9382-.1969-7.4054-.1244-6.6122.1941-12.7123,1.9257-17.8613,6.2767a28.1424,28.1424,0,0,0-6.4064,7.9589C149.7459,69.272,149.62,69.4406,149.5049,69.6156Z"/><path class="cls-3" d="M281.5273,14.0695a38.129,38.129,0,0,0,5.216,2.65,50.0944,50.0944,0,0,1,16.3541,11.8521,44.361,44.361,0,0,1,6.7868,10.21,84.2306,84.2306,0,0,1,4.1443,9.3292,50.3346,50.3346,0,0,1,1.4557,5.9071c.628,2.91,1.1113,5.85,1.8847,8.7289a1.8589,1.8589,0,0,1,.0035.4722c-.6667-1.3786-1.3275-2.76-2.0012-4.1353a22.546,22.546,0,0,0-10.767-10.753,18.6033,18.6033,0,0,0-7.74-1.8761C289.26,46.3076,283.08,49.356,278.002,54.84c-1.3679,1.4772-2.4227,3.218-3.753,4.741-2.2572,2.5842-5.1676,3.1614-8.4108,3.0846a10.2319,10.2319,0,0,1-6.2239-2.6687c-2.391-1.8964-4.8336-3.7287-7.1959-5.66-3.1132-2.5449-4.1485-5.8916-3.8679-9.8485.2429-3.425,2.1124-5.9781,4.0266-8.5551a68.4963,68.4963,0,0,1,13.1194-13.0373A67.1255,67.1255,0,0,1,281.3722,14.06C281.4152,14.0425,281.4752,14.0655,281.5273,14.0695Z"/><path class="cls-5" d="M186.6058,126.8438a12.6925,12.6925,0,0,0-2.5253-.8822,43.6079,43.6079,0,0,1-5.7286-2.6775,66.74,66.74,0,0,1-8.948-5.9838,64.72,64.72,0,0,1-6.2494-5.494,66.8925,66.8925,0,0,1-5.7821-6.9283,58.5,58.5,0,0,1-4.3407-7.096,40.5552,40.5552,0,0,1-2.8055-6.9584c-.6008-1.9361-.75-3.929-1.1833-5.8793a2.3346,2.3346,0,0,1,.0536-1.3337c.4962.8438.9984,1.6841,1.4876,2.5319,3.5369,6.13,8.9082,9.7865,15.62,11.6983A23.96,23.96,0,0,0,186.95,94.4164a25.1242,25.1242,0,0,0,4.489-4.2676,10.9421,10.9421,0,0,1,6.4654-3.7723,10.2977,10.2977,0,0,1,7.2242,1.2557,63.9213,63.9213,0,0,1,11.0035,8.7449,9.2846,9.2846,0,0,1,2.4148,5.91c.3651,3.6693-1.2961,6.5484-3.6042,9.19a48.515,48.515,0,0,1-12.573,10.1557,44.6368,44.6368,0,0,1-10.0732,3.8478c-1.703.4879-3.4261.9058-5.1429,1.3447A2.5057,2.5057,0,0,1,186.6058,126.8438Z"/><path class="cls-6" d="M281.5273,14.0695A45.2485,45.2485,0,0,1,292.0287,11.42a74.5863,74.5863,0,0,1,10.945-.7582,39.5074,39.5074,0,0,1,9.5849,1.6761,43.6955,43.6955,0,0,1,17.7231,9.924,55.67,55.67,0,0,1,13.764,19.4468,61.9791,61.9791,0,0,1,4.0921,12.1549c.6234,2.9214,1.0759,5.8768,1.53,8.832a64.7064,64.7064,0,0,1,.6546,11.7449,84.74,84.74,0,0,1-1.3468,12.96A70.7147,70.7147,0,0,1,338.83,113.32a49.5958,49.5958,0,0,1-16.2385,16c-4.6184,2.7526-9.5441,5.0108-14.9609,5.7169a73.4577,73.4577,0,0,1-14.0634.4473,37.7478,37.7478,0,0,1-8.6674-1.4528c-1.2071-.3659-3.1694-1.1352-3.5657-1.2809a28.9348,28.9348,0,0,1-3.68-1.4368,19.2254,19.2254,0,0,0,2.4322-.6469c.7433-.1967,1.439-.516,2.1564-.78a51.7581,51.7581,0,0,0,7.7-3.354,46.1779,46.1779,0,0,0,5.1606-3.4169,48.2822,48.2822,0,0,0,6.185-5.5872,45.808,45.808,0,0,0,6.4953-8.4033,66.4371,66.4371,0,0,0,5.9988-13.1866,30.9152,30.9152,0,0,0,1.5369-8.2211c.7033-1.7106,1.5034-3.3835,2.0366-5.1607a33.2744,33.2744,0,0,0,1.3525-11.455,40.2625,40.2625,0,0,0-1.3361-7.8828,1.8589,1.8589,0,0,0-.0035-.4722c-.7734-2.8785-1.2568-5.8193-1.8847-8.7289a50.3346,50.3346,0,0,0-1.4557-5.9071,84.2306,84.2306,0,0,0-4.1443-9.3292,44.361,44.361,0,0,0-6.7868-10.21A50.0944,50.0944,0,0,0,286.7433,16.72,38.1289,38.1289,0,0,1,281.5273,14.0695Z"/><path class="cls-3" d="M277.6543,131.3142l-6.2518-3.2336,8.684,2.5866A6.5544,6.5544,0,0,1,277.6543,131.3142Z"/></g></svg>